<?xml version="1.0" standalone="no"?><!DOCTYPE svg PUBLIC "-//W3C//DTD SVG 1.1//EN" "http://www.w3.org/Graphics/SVG/1.1/DTD/svg11.dtd"><svg t="1553658117862" class="icon" style="" viewBox="0 0 1024 1024" version="1.1" xmlns="http://www.w3.org/2000/svg" p-id="6644" xmlns:xlink="http://www.w3.org/1999/xlink" width="14" height="14"><defs><style type="text/css"></style></defs><path d="M912 173.4v123.2c0 8.3-3 15.6-9.1 21.6-6.1 6.1-13.4 9.1-21.6 9.1H142.7c-8.3 0-15.6-3-21.6-9.1-6.1-6.1-9.1-13.2-9.1-21.6V173.4c0-8.3 3-15.6 9.1-21.6 6.1-6.1 13.2-9.1 21.6-9.1h738.6c8.3 0 15.6 3 21.6 9.1 6.2 6 9.1 13.3 9.1 21.6z m-30.7 215.5v461.7c0 8.3-3 15.6-9.1 21.6-6.1 6.1-13.4 9.1-21.6 9.1h-677c-8.3 0-15.6-3-21.6-9.1-6.1-6.1-9.1-13.4-9.1-21.6V388.9c0-8.3 3-15.6 9.1-21.6s13.2-9.1 21.6-9.1h677.1c8.3 0 15.6 3 21.6 9.1 5.9 6.1 9 13.2 9 21.6z m-286.1 114c6.1-6.1 9.1-13.2 9.1-21.6 0-8.3-3-15.6-9.1-21.6-6.1-6.1-13.4-9.1-21.6-9.1H450.4c-8.3 0-15.6 3-21.6 9.1s-9.1 13.4-9.1 21.6c0 8.3 3 15.6 9.1 21.6s13.2 9.1 21.6 9.1h123.1c8.3 0 15.7-3 21.7-9.1z" p-id="6645" fill="#7c8f9f"></path></svg>